<?xml version="1.0" standalone="no"?>
<!DOCTYPE svg PUBLIC "-//W3C//DTD SVG 20010904//EN"
 "http://www.w3.org/TR/2001/REC-SVG-20010904/DTD/svg10.dtd">
<svg version="1.0" xmlns="http://www.w3.org/2000/svg"
 width="512.000000pt" height="512.000000pt" viewBox="0 0 512.000000 512.000000"
 preserveAspectRatio="xMidYMid meet">

<g transform="translate(0.000000,512.000000) scale(0.100000,-0.100000)"
fill="#000000" stroke="none">
<path d="M1360 4707 c-49 -16 -133 -102 -148 -153 -7 -23 -12 -66 -12 -97 l0
-55 -248 -4 -248 -3 -76 -37 c-91 -45 -147 -103 -191 -196 l-32 -67 0 -1456 0
-1455 37 -76 c45 -91 103 -147 196 -191 l67 -32 1112 -5 1112 -5 49 -70 c52
-75 161 -183 234 -233 311 -214 712 -227 1040 -35 112 65 266 219 329 328 101
174 133 294 133 495 0 153 -17 246 -66 365 -65 154 -199 323 -332 417 l-71 49
-5 952 -5 952 -32 67 c-44 93 -100 151 -191 196 l-76 37 -248 3 -248 4 0 55
c0 80 -18 128 -67 183 -95 106 -236 108 -338 5 -57 -56 -75 -102 -75 -189 l0
-56 -200 0 -200 0 0 56 c0 81 -18 129 -67 184 -95 106 -236 108 -338 5 -57
-56 -75 -102 -75 -189 l0 -56 -200 0 -200 0 0 56 c0 81 -18 129 -67 184 -65
72 -158 97 -253 67z m135 -172 c25 -24 25 -26 25 -215 0 -189 0 -191 -25 -215
-15 -16 -36 -25 -55 -25 -19 0 -40 9 -55 25 -25 24 -25 26 -25 215 0 189 0
191 25 215 15 16 36 25 55 25 19 0 40 -9 55 -25z m880 0 c25 -24 25 -26 25
-215 0 -189 0 -191 -25 -215 -15 -16 -36 -25 -55 -25 -19 0 -40 9 -55 25 -25
24 -25 26 -25 215 0 189 0 191 25 215 15 16 36 25 55 25 19 0 40 -9 55 -25z
m880 0 c25 -24 25 -26 25 -215 0 -189 0 -191 -25 -215 -15 -16 -36 -25 -55
-25 -19 0 -40 9 -55 25 -25 24 -25 26 -25 215 0 189 0 191 25 215 15 16 36 25
55 25 19 0 40 -9 55 -25z m-2055 -351 c0 -87 18 -133 75 -189 102 -103 243
-101 338 5 49 55 67 103 67 184 l0 56 200 0 200 0 0 -56 c0 -87 18 -133 75
-189 102 -103 243 -101 338 5 49 55 67 103 67 184 l0 56 200 0 200 0 0 -56 c0
-87 18 -133 75 -189 102 -103 243 -101 338 5 49 55 67 103 67 184 l0 56 216 0
c257 0 279 -5 349 -75 66 -65 75 -99 75 -269 l0 -136 -1760 0 -1760 0 0 136
c0 78 5 154 12 178 15 51 99 137 148 153 21 6 126 11 258 12 l222 1 0 -56z
m2880 -1249 c0 -366 -3 -665 -7 -665 -5 0 -42 10 -83 21 -44 12 -123 23 -192
26 l-118 6 0 494 0 494 -25 24 -24 25 -1311 0 -1311 0 -24 -25 -25 -24 0 -991
0 -991 25 -24 24 -25 894 0 c976 0 907 4 907 -54 0 -12 9 -56 20 -97 11 -41
20 -77 20 -81 0 -5 -469 -8 -1041 -8 -789 0 -1052 3 -1083 12 -55 16 -138 99
-154 154 -9 31 -12 323 -12 1218 l0 1176 1760 0 1760 0 0 -665z m-2480 25 l0
-240 -240 0 -240 0 0 240 0 240 240 0 240 0 0 -240z m640 0 l0 -240 -240 0
-240 0 0 240 0 240 240 0 240 0 0 -240z m640 0 l0 -240 -240 0 -240 0 0 240 0
240 240 0 240 0 0 -240z m640 0 l0 -240 -240 0 -240 0 0 240 0 240 240 0 240
0 0 -240z m-1920 -640 l0 -240 -240 0 -240 0 0 240 0 240 240 0 240 0 0 -240z
m640 0 l0 -240 -240 0 -240 0 0 240 0 240 240 0 240 0 0 -240z m640 0 l0 -240
-240 0 -240 0 0 240 0 240 240 0 240 0 0 -240z m640 106 l0 -134 -52 -17 c-87
-28 -209 -92 -278 -145 -54 -41 -72 -49 -107 -50 l-43 0 0 240 0 240 240 0
240 0 0 -134z m430 -290 c208 -56 367 -170 481 -344 239 -364 132 -861 -238
-1102 -311 -204 -727 -161 -992 101 -234 232 -303 567 -178 872 102 250 322
430 592 482 85 17 258 13 335 -9z m-2350 -456 l0 -240 -240 0 -240 0 0 240 0
240 240 0 240 0 0 -240z m640 0 l0 -240 -240 0 -240 0 0 240 0 240 240 0 240
0 0 -240z m640 156 c0 -67 -6 -103 -29 -173 -17 -48 -34 -117 -38 -153 l-8
-65 -203 -3 -202 -2 0 240 0 240 240 0 240 0 0 -84z"/>
<path d="M3705 1975 c-20 -19 -25 -34 -25 -74 0 -49 -1 -50 -42 -69 -62 -28
-133 -108 -152 -173 -34 -114 -11 -205 73 -290 61 -61 125 -89 201 -89 111 0
169 -142 91 -221 -78 -77 -221 -20 -221 88 0 44 -37 83 -80 83 -42 0 -80 -39
-80 -83 0 -98 73 -213 165 -257 44 -21 45 -23 45 -71 0 -61 31 -99 80 -99 49
0 80 38 80 99 0 48 1 50 45 71 24 12 65 44 90 72 99 111 99 265 0 376 -55 61
-108 88 -199 101 -81 12 -115 33 -135 84 -40 105 61 206 166 166 46 -18 71
-52 82 -114 16 -83 84 -113 138 -59 23 23 25 31 20 80 -10 101 -73 191 -163
234 -43 21 -44 23 -44 71 0 61 -31 99 -80 99 -19 0 -40 -9 -55 -25z"/>
</g>
</svg>
