<svg width="135" height="57" viewBox="0 0 135 57" fill="none" xmlns="http://www.w3.org/2000/svg">
<path d="M11.08 12.42C9.49 12.48 8.2 12.915 7.21 13.725C6.22 14.535 5.545 15.24 5.185 15.84C4.615 16.83 4.33 18.15 4.33 19.8V35.145H0.73V9.495H3.925V13.14C4.645 11.76 5.71 10.695 7.12 9.945C8.41 9.255 9.73 8.94 11.08 9V12.42ZM36.6906 23.49H13.6506C13.9206 26.07 15.0156 28.2 16.9356 29.88C18.8556 31.56 21.1206 32.385 23.7306 32.355C27.7806 32.295 30.6756 30.42 32.4156 26.73H36.0606C35.1006 29.49 33.4806 31.68 31.2006 33.3C28.9206 34.92 26.3856 35.745 23.5956 35.775C20.0856 35.835 16.9806 34.56 14.2806 31.95C11.5806 29.31 10.2006 26.175 10.1406 22.545C10.0506 18.705 11.4006 15.405 14.1906 12.645C17.0106 9.855 20.3256 8.565 24.1356 8.775C27.5556 8.985 30.5256 10.395 33.0456 13.005C35.4756 15.585 36.6906 18.465 36.6906 21.645V23.49ZM33.3156 20.34C32.8356 17.94 31.7106 16.005 29.9406 14.535C28.1706 13.035 26.0556 12.27 23.5956 12.24C21.1356 12.21 18.9756 12.945 17.1156 14.445C15.2856 15.945 14.1306 17.91 13.6506 20.34H33.3156ZM62.4398 24.12C62.4398 27.45 61.3598 30.225 59.1998 32.445C57.0698 34.665 54.3698 35.775 51.0998 35.775C47.8298 35.775 45.1148 34.665 42.9548 32.445C40.8248 30.225 39.7598 27.45 39.7598 24.12V9.495H43.2248V24.525C43.2248 26.685 44.0048 28.545 45.5648 30.105C47.1548 31.635 48.9998 32.4 51.0998 32.4C53.1998 32.4 55.0298 31.635 56.5898 30.105C58.1798 28.545 58.9748 26.685 58.9748 24.525V9.495H62.4398V24.12Z" fill="#008ECF"/>
<path d="M92.5838 22.32C92.5838 25.92 91.3388 29.025 88.8488 31.635C86.3588 34.245 83.3288 35.61 79.7588 35.73C76.0688 35.85 72.8588 34.56 70.1288 31.86C67.3988 29.16 66.0788 25.965 66.1688 22.275V22.095V0.449999H69.5438V13.41C72.0638 10.5 75.2138 8.985 78.9938 8.865C82.6838 8.715 85.8638 9.99 88.5338 12.69C91.2338 15.39 92.5838 18.6 92.5838 22.32ZM89.1188 22.05C89.0588 19.35 88.0688 17.04 86.1488 15.12C84.2588 13.17 81.9488 12.195 79.2188 12.195C76.6088 12.195 74.3738 13.155 72.5138 15.075C70.6538 16.995 69.6938 19.305 69.6338 22.005C69.5438 24.855 70.5038 27.33 72.5138 29.43C74.5238 31.5 76.9238 32.475 79.7138 32.355C82.3538 32.235 84.5888 31.17 86.4188 29.16C88.2488 27.15 89.1488 24.78 89.1188 22.05ZM105.65 12.42C104.06 12.48 102.77 12.915 101.78 13.725C100.79 14.535 100.115 15.24 99.7553 15.84C99.1853 16.83 98.9003 18.15 98.9003 19.8V35.145H95.3003V9.495H98.4953V13.14C99.2153 11.76 100.28 10.695 101.69 9.945C102.98 9.255 104.3 8.94 105.65 9V12.42ZM131.125 22.32C131.125 26.01 129.775 29.205 127.075 31.905C124.405 34.575 121.225 35.85 117.535 35.73C113.965 35.64 110.935 34.29 108.445 31.68C105.985 29.07 104.755 25.965 104.755 22.365C104.755 18.615 106.09 15.405 108.76 12.735C111.43 10.035 114.61 8.745 118.3 8.865C121.87 8.985 124.9 10.365 127.39 13.005C129.88 15.615 131.125 18.72 131.125 22.32ZM127.705 22.05C127.615 19.35 126.64 17.04 124.78 15.12C122.95 13.2 120.73 12.24 118.12 12.24C115.39 12.21 113.065 13.17 111.145 15.12C109.225 17.04 108.25 19.365 108.22 22.095C108.16 24.795 109.045 27.165 110.875 29.205C112.705 31.215 114.94 32.265 117.58 32.355C120.4 32.505 122.8 31.53 124.78 29.43C126.79 27.33 127.765 24.87 127.705 22.05Z" fill="#757576"/>
<path d="M3.828 56H2.47V45.969H3.828V56ZM8.75097 45.969C8.8723 45.969 8.96097 45.9853 9.01697 46.018C9.07764 46.046 9.1453 46.1067 9.21997 46.2L15.03 53.76C15.016 53.6387 15.0066 53.522 15.002 53.41C14.9973 53.2933 14.995 53.1813 14.995 53.074V45.969H16.185V56H15.499C15.3916 56 15.3006 55.9813 15.226 55.944C15.156 55.9067 15.086 55.8437 15.016 55.755L9.21297 48.202C9.2223 48.3187 9.2293 48.433 9.23397 48.545C9.23864 48.657 9.24097 48.7597 9.24097 48.853V56H8.05097V45.969H8.75097ZM27.005 45.969V47.11H23.764V56H22.406V47.11H19.151V45.969H27.005ZM36.1518 45.969V47.075H31.3358V50.407H35.2348V51.471H31.3358V54.894H36.1518V56H29.9708V45.969H36.1518ZM41.1366 51.814V56H39.7856V45.969H42.6206C43.2552 45.969 43.8036 46.0343 44.2656 46.165C44.7276 46.291 45.1079 46.4753 45.4066 46.718C45.7099 46.9607 45.9339 47.2547 46.0786 47.6C46.2232 47.9407 46.2956 48.3233 46.2956 48.748C46.2956 49.1027 46.2396 49.434 46.1276 49.742C46.0156 50.05 45.8522 50.3277 45.6376 50.575C45.4276 50.8177 45.1686 51.0253 44.8606 51.198C44.5572 51.3707 44.2119 51.5013 43.8246 51.59C43.9926 51.688 44.1419 51.8303 44.2726 52.017L47.1986 56H45.9946C45.7472 56 45.5652 55.9043 45.4486 55.713L42.8446 52.129C42.7652 52.017 42.6789 51.9377 42.5856 51.891C42.4922 51.8397 42.3522 51.814 42.1656 51.814H41.1366ZM41.1366 50.827H42.5576C42.9542 50.827 43.3019 50.7803 43.6006 50.687C43.9039 50.589 44.1559 50.4537 44.3566 50.281C44.5619 50.1037 44.7159 49.8937 44.8186 49.651C44.9212 49.4083 44.9726 49.14 44.9726 48.846C44.9726 48.2487 44.7742 47.7983 44.3776 47.495C43.9856 47.1917 43.3999 47.04 42.6206 47.04H41.1366V50.827ZM50.8953 45.969C51.0167 45.969 51.1053 45.9853 51.1613 46.018C51.222 46.046 51.2897 46.1067 51.3643 46.2L57.1743 53.76C57.1603 53.6387 57.151 53.522 57.1463 53.41C57.1417 53.2933 57.1393 53.1813 57.1393 53.074V45.969H58.3293V56H57.6433C57.536 56 57.445 55.9813 57.3703 55.944C57.3003 55.9067 57.2303 55.8437 57.1603 55.755L51.3573 48.202C51.3667 48.3187 51.3737 48.433 51.3783 48.545C51.383 48.657 51.3853 48.7597 51.3853 48.853V56H50.1953V45.969H50.8953ZM70.5704 56H69.5204C69.399 56 69.301 55.9697 69.2264 55.909C69.1517 55.8483 69.0957 55.7713 69.0584 55.678L68.1204 53.256H63.6194L62.6814 55.678C62.6487 55.762 62.5927 55.8367 62.5134 55.902C62.434 55.9673 62.336 56 62.2194 56H61.1694L65.1804 45.969H66.5594L70.5704 56ZM63.9974 52.276H67.7424L66.1674 48.195C66.0647 47.943 65.9644 47.628 65.8664 47.25C65.815 47.4413 65.7637 47.6187 65.7124 47.782C65.6657 47.9407 65.619 48.0807 65.5724 48.202L63.9974 52.276ZM79.2753 45.969V47.11H76.0343V56H74.6763V47.11H71.4213V45.969H79.2753ZM83.8511 56H82.4931V45.969H83.8511V56ZM97.3911 50.988C97.3911 51.7393 97.2721 52.43 97.0341 53.06C96.7961 53.6853 96.4601 54.2243 96.0261 54.677C95.5921 55.1297 95.0694 55.482 94.4581 55.734C93.8514 55.9813 93.1794 56.105 92.4421 56.105C91.7048 56.105 91.0328 55.9813 90.4261 55.734C89.8194 55.482 89.2991 55.1297 88.8651 54.677C88.4311 54.2243 88.0951 53.6853 87.8571 53.06C87.6191 52.43 87.5001 51.7393 87.5001 50.988C87.5001 50.2367 87.6191 49.5483 87.8571 48.923C88.0951 48.293 88.4311 47.7517 88.8651 47.299C89.2991 46.8417 89.8194 46.487 90.4261 46.235C91.0328 45.983 91.7048 45.857 92.4421 45.857C93.1794 45.857 93.8514 45.983 94.4581 46.235C95.0694 46.487 95.5921 46.8417 96.0261 47.299C96.4601 47.7517 96.7961 48.293 97.0341 48.923C97.2721 49.5483 97.3911 50.2367 97.3911 50.988ZM95.9981 50.988C95.9981 50.372 95.9141 49.819 95.7461 49.329C95.5781 48.839 95.3401 48.426 95.0321 48.09C94.7241 47.7493 94.3508 47.488 93.9121 47.306C93.4734 47.124 92.9834 47.033 92.4421 47.033C91.9054 47.033 91.4178 47.124 90.9791 47.306C90.5404 47.488 90.1648 47.7493 89.8521 48.09C89.5441 48.426 89.3061 48.839 89.1381 49.329C88.9701 49.819 88.8861 50.372 88.8861 50.988C88.8861 51.604 88.9701 52.157 89.1381 52.647C89.3061 53.1323 89.5441 53.5453 89.8521 53.886C90.1648 54.222 90.5404 54.481 90.9791 54.663C91.4178 54.8403 91.9054 54.929 92.4421 54.929C92.9834 54.929 93.4734 54.8403 93.9121 54.663C94.3508 54.481 94.7241 54.222 95.0321 53.886C95.3401 53.5453 95.5781 53.1323 95.7461 52.647C95.9141 52.157 95.9981 51.604 95.9981 50.988ZM101.484 45.969C101.605 45.969 101.694 45.9853 101.75 46.018C101.811 46.046 101.878 46.1067 101.953 46.2L107.763 53.76C107.749 53.6387 107.74 53.522 107.735 53.41C107.73 53.2933 107.728 53.1813 107.728 53.074V45.969H108.918V56H108.232C108.125 56 108.034 55.9813 107.959 55.944C107.889 55.9067 107.819 55.8437 107.749 55.755L101.946 48.202C101.955 48.3187 101.962 48.433 101.967 48.545C101.972 48.657 101.974 48.7597 101.974 48.853V56H100.784V45.969H101.484ZM121.159 56H120.109C119.988 56 119.89 55.9697 119.815 55.909C119.74 55.8483 119.684 55.7713 119.647 55.678L118.709 53.256H114.208L113.27 55.678C113.237 55.762 113.181 55.8367 113.102 55.902C113.023 55.9673 112.925 56 112.808 56H111.758L115.769 45.969H117.148L121.159 56ZM114.586 52.276H118.331L116.756 48.195C116.653 47.943 116.553 47.628 116.455 47.25C116.404 47.4413 116.352 47.6187 116.301 47.782C116.254 47.9407 116.208 48.0807 116.161 48.202L114.586 52.276ZM125.32 54.859H129.66V56H123.962V45.969H125.32V54.859Z" fill="black"/>
<line x1="1" y1="41.5" x2="130" y2="41.5" stroke="#797979"/>
</svg>
