<?xml version="1.0" standalone="no"?>
<!DOCTYPE svg PUBLIC "-//W3C//DTD SVG 20010904//EN"
 "http://www.w3.org/TR/2001/REC-SVG-20010904/DTD/svg10.dtd">
<svg version="1.0" xmlns="http://www.w3.org/2000/svg"
 width="512.000000pt" height="512.000000pt" viewBox="0 0 512.000000 512.000000"
 preserveAspectRatio="xMidYMid meet">

<g transform="translate(0.000000,512.000000) scale(0.100000,-0.100000)"
fill="#000000" stroke="none">
<path d="M2392 4985 c-16 -13 -71 -94 -122 -180 l-93 -155 -56 -16 c-31 -8
-68 -19 -83 -24 -24 -8 -49 3 -190 82 -92 51 -179 93 -200 96 -32 4 -53 -4
-153 -63 -64 -37 -122 -77 -130 -89 -10 -15 -15 -79 -21 -223 l-7 -202 -62
-61 -63 -60 -189 0 c-165 0 -192 -2 -218 -18 -43 -27 -155 -225 -155 -275 0
-28 22 -76 90 -198 49 -89 90 -169 90 -179 0 -9 -4 -30 -10 -46 -5 -16 -14
-48 -20 -71 -10 -41 -15 -45 -170 -138 -87 -53 -168 -107 -180 -122 -18 -23
-20 -40 -20 -170 l0 -145 29 -29 c54 -54 146 -36 170 33 6 17 11 67 11 112 l0
81 149 88 c81 48 158 98 169 110 12 12 29 52 37 87 9 36 25 94 36 130 33 108
31 118 -65 290 -47 85 -86 160 -86 167 0 6 9 28 21 47 l20 34 195 4 194 3 117
117 c117 117 117 117 124 175 4 32 8 121 8 199 l1 140 40 23 41 23 156 -87
c86 -47 168 -88 183 -91 14 -3 64 5 111 19 46 14 108 31 136 37 29 7 64 21 78
32 13 10 66 89 117 174 l93 154 45 0 45 0 93 -154 c51 -85 104 -164 117 -174
14 -11 49 -25 78 -32 28 -6 90 -23 136 -37 47 -14 97 -22 111 -19 15 3 97 44
183 91 l156 87 41 -23 40 -23 1 -140 c0 -78 4 -167 8 -199 7 -58 7 -58 124
-175 l117 -117 194 -3 195 -4 20 -34 c12 -19 21 -40 21 -46 0 -6 -38 -79 -84
-162 -46 -83 -86 -161 -89 -174 -3 -13 0 -44 7 -70 7 -26 25 -92 40 -147 15
-58 35 -109 48 -122 11 -12 88 -62 169 -110 l149 -88 0 -81 c0 -45 5 -95 11
-112 24 -69 116 -87 170 -33 l29 29 0 141 c0 81 -5 150 -11 164 -7 16 -71 61
-180 126 -164 99 -169 103 -179 144 -6 23 -15 55 -20 71 -6 16 -10 37 -10 46
0 10 41 90 90 179 68 122 90 170 90 198 0 50 -112 248 -155 274 -26 17 -53 19
-220 19 l-191 0 -61 63 -61 62 -7 196 c-4 116 -12 207 -19 220 -6 14 -61 53
-126 92 -148 88 -144 88 -358 -31 -141 -79 -166 -90 -190 -82 -15 5 -52 16
-83 24 l-56 16 -93 155 c-51 86 -106 167 -122 180 -28 24 -35 25 -168 25 -133
0 -140 -1 -168 -25z"/>
<path d="M2450 4265 l0 -105 110 0 110 0 0 105 0 105 -110 0 -110 0 0 -105z"/>
<path d="M2344 3919 c-386 -81 -703 -376 -809 -754 -29 -101 -52 -325 -41
-397 15 -97 113 -135 179 -70 l31 31 7 148 c8 173 24 244 84 370 106 219 293
377 530 449 80 24 106 27 235 27 129 0 155 -3 235 -27 237 -72 424 -230 530
-449 60 -126 76 -197 84 -370 l7 -148 31 -31 c66 -65 164 -27 179 70 11 72
-12 296 -41 397 -107 381 -425 676 -815 755 -128 26 -300 26 -426 -1z"/>
<path d="M2480 3510 c-129 -17 -264 -82 -360 -173 -100 -95 -115 -154 -55
-214 32 -32 40 -35 76 -30 32 4 54 18 112 74 110 104 199 139 336 131 171 -10
326 -131 377 -296 8 -26 17 -99 21 -162 6 -108 8 -117 34 -142 54 -55 146 -34
170 39 18 55 6 242 -21 328 -91 293 -390 486 -690 445z"/>
<path d="M1070 2770 l0 -110 105 0 105 0 0 110 0 110 -105 0 -105 0 0 -110z"/>
<path d="M3840 2770 l0 -110 105 0 105 0 0 110 0 110 -105 0 -105 0 0 -110z"/>
<path d="M838 2434 c-154 -37 -290 -147 -357 -289 -46 -96 -53 -149 -49 -365
3 -170 6 -202 25 -253 25 -67 68 -137 114 -185 17 -18 30 -35 28 -36 -2 -2
-119 -80 -259 -173 -140 -94 -265 -180 -277 -192 -54 -51 -58 -71 -61 -295 -2
-116 -1 -224 3 -242 15 -83 232 -220 435 -276 l85 -23 1780 0 c1709 0 1781 1
1807 18 58 39 58 135 0 174 -26 17 -103 18 -1817 23 l-1790 5 -60 22 c-66 25
-115 50 -187 95 l-48 30 0 159 0 159 301 201 301 200 49 -10 c64 -14 134 -14
198 0 l49 10 248 -165 248 -166 -3 -119 c-3 -135 7 -169 60 -197 43 -22 91
-11 123 27 24 28 26 38 26 125 l0 94 301 201 301 200 49 -10 c64 -14 134 -14
198 0 l49 10 301 -200 301 -201 0 -94 c0 -87 2 -97 26 -125 32 -38 80 -49 123
-27 53 28 63 62 60 197 l-3 119 248 166 248 165 49 -10 c64 -14 134 -14 198 0
l49 10 301 -200 301 -201 0 -159 0 -158 -37 -25 c-119 -79 -214 -114 -347
-128 -80 -8 -93 -12 -119 -39 -43 -42 -42 -101 2 -144 30 -31 34 -32 111 -30
146 4 330 67 466 161 82 56 122 98 129 136 4 18 5 126 3 242 -3 224 -7 244
-61 295 -12 12 -137 98 -277 192 -140 93 -257 171 -259 173 -2 1 11 18 28 36
46 48 89 118 114 185 19 51 22 83 25 253 4 216 -3 269 -49 365 -106 223 -359
346 -597 290 -157 -37 -293 -146 -361 -290 -46 -96 -53 -149 -49 -365 3 -170
6 -202 25 -253 25 -67 68 -137 114 -185 17 -18 30 -35 28 -36 -26 -22 -431
-286 -439 -286 -8 0 -413 264 -439 286 -2 1 11 18 28 36 46 48 89 118 114 185
19 51 22 83 25 253 4 216 -3 269 -49 365 -68 144 -204 253 -361 290 -238 56
-491 -67 -597 -290 -46 -96 -53 -149 -49 -365 3 -170 6 -202 25 -253 25 -67
68 -137 114 -185 17 -18 30 -35 28 -36 -26 -22 -431 -286 -439 -286 -8 0 -413
264 -439 286 -2 1 11 18 28 36 46 48 89 118 114 185 19 51 22 83 25 253 4 216
-3 269 -49 365 -106 224 -363 347 -601 289z m222 -216 c80 -25 155 -93 192
-173 21 -46 23 -63 23 -235 0 -172 -2 -189 -23 -236 -58 -128 -210 -209 -344
-184 -105 20 -198 92 -240 184 -21 47 -23 64 -23 236 0 172 2 189 23 236 67
147 234 221 392 172z m1600 0 c80 -25 155 -93 192 -173 21 -46 23 -63 23 -235
0 -172 -2 -189 -23 -236 -42 -92 -135 -164 -240 -184 -134 -25 -286 56 -344
184 -21 47 -23 64 -23 236 0 172 2 189 23 236 67 147 234 221 392 172z m1600
0 c80 -25 155 -93 192 -173 21 -46 23 -63 23 -235 0 -172 -2 -189 -23 -236
-58 -128 -210 -209 -344 -184 -105 20 -198 92 -240 184 -21 47 -23 64 -23 236
0 172 2 189 23 236 67 147 234 221 392 172z"/>
</g>
</svg>
