<?xml version="1.0" standalone="no"?>
<!DOCTYPE svg PUBLIC "-//W3C//DTD SVG 20010904//EN"
 "http://www.w3.org/TR/2001/REC-SVG-20010904/DTD/svg10.dtd">
<svg version="1.0" xmlns="http://www.w3.org/2000/svg"
 width="87.000000pt" height="87.000000pt" viewBox="0 0 87.000000 87.000000"
 preserveAspectRatio="xMidYMid meet">

<g transform="translate(0.000000,87.000000) scale(0.100000,-0.100000)"
fill="#000000" stroke="none">
<path d="M485 760 c-4 -6 -54 -10 -116 -10 -130 0 -149 -7 -149 -55 0 -23 -5
-35 -13 -35 -38 0 -60 -63 -42 -117 6 -19 4 -23 -12 -23 -43 0 -54 -30 -51
-136 3 -94 4 -99 26 -102 21 -3 22 -8 22 -81 0 -51 4 -82 13 -89 16 -13 118
-13 135 0 14 12 17 98 3 98 -6 0 -11 -19 -13 -43 -2 -34 -7 -42 -23 -42 -19 0
-20 8 -23 103 -4 132 -22 135 -22 3 0 -101 -8 -124 -35 -101 -12 10 -15 44
-15 166 0 96 -4 154 -10 154 -6 0 -10 -32 -10 -76 0 -56 -3 -75 -12 -72 -9 3
-14 33 -16 92 l-3 87 36 15 c20 8 58 14 83 13 34 -1 65 6 114 29 37 17 70 26
73 21 10 -15 -2 -25 -70 -53 l-65 -28 0 -89 c0 -53 4 -89 10 -89 6 0 10 11 10
25 0 26 0 26 78 23 l77 -3 3 -56 3 -57 -66 -58 c-36 -33 -65 -62 -65 -66 0
-17 23 -6 64 32 48 44 66 50 66 20 0 -11 5 -20 10 -20 6 0 10 12 10 26 0 26 1
26 55 -21 80 -68 90 -50 12 21 l-67 59 0 62 0 62 138 3 137 3 3 48 c4 55 -15
65 -20 10 l-3 -38 -217 -3 -218 -2 0 44 0 45 68 33 c70 35 88 62 57 88 -13 11
-25 9 -75 -12 l-58 -26 5 32 c5 34 -26 86 -53 86 -11 0 -14 8 -12 28 l3 27
253 3 252 2 0 -90 c0 -53 4 -90 10 -90 6 0 10 38 10 95 0 83 -2 96 -19 105
-11 5 -69 10 -130 10 -67 0 -111 4 -111 10 0 6 -4 10 -9 10 -6 0 -13 -4 -16
-10z m-218 -132 c22 -29 22 -48 -2 -75 -23 -27 -25 -27 -52 -13 -33 18 -42 60
-18 84 19 19 59 21 72 4z"/>
<path d="M360 650 c0 -6 51 -10 134 -10 79 0 137 4 141 10 4 6 -43 10 -134 10
-87 0 -141 -4 -141 -10z"/>
<path d="M470 600 c0 -6 43 -10 110 -10 67 0 110 4 110 10 0 6 -43 10 -110 10
-67 0 -110 -4 -110 -10z"/>
<path d="M487 554 c-17 -17 12 -24 104 -24 76 0 100 3 97 13 -5 13 -188 23
-201 11z"/>
<path d="M750 500 c0 -5 5 -10 10 -10 6 0 10 5 10 10 0 6 -4 10 -10 10 -5 0
-10 -4 -10 -10z"/>
<path d="M460 490 c0 -6 45 -10 115 -10 70 0 115 4 115 10 0 6 -45 10 -115 10
-70 0 -115 -4 -115 -10z"/>
<path d="M290 250 c0 -5 5 -10 10 -10 6 0 10 5 10 10 0 6 -4 10 -10 10 -5 0
-10 -4 -10 -10z"/>
</g>
</svg>
